
<svg id="svg" version="1.1" xmlns="http://www.w3.org/2000/svg" xmlns:xlink="http://www.w3.org/1999/xlink" width="400" height="316.15384615384613" viewBox="0, 0, 400,316.15384615384613"><g id="svgg"><path id="path0" d="M35.385 18.719 C 28.504 22.202,25.000 30.538,27.260 38.047 L 28.405 41.851 25.719 44.538 C 20.717 49.539,19.756 57.197,23.257 64.156 L 24.767 67.158 23.008 70.287 C 20.572 74.621,20.572 81.533,23.008 85.867 L 24.767 88.996 23.217 92.034 C 20.203 97.941,20.710 107.078,24.214 109.986 C 25.229 110.829,25.194 111.184,23.916 112.978 C 20.439 117.861,20.166 124.294,23.184 130.210 L 24.701 133.184 22.947 136.784 C 20.574 141.654,20.633 147.794,23.095 152.175 L 24.899 155.385 23.095 158.595 C 20.633 162.975,20.574 169.115,22.947 173.985 L 24.701 177.586 23.184 180.559 C 20.184 186.440,20.439 192.908,23.861 197.713 C 25.209 199.606,25.208 199.733,23.817 201.566 C 20.437 206.023,20.200 212.754,23.214 218.707 L 24.701 221.645 22.947 225.246 C 20.574 230.116,20.633 236.256,23.095 240.636 L 24.899 243.846 23.313 246.731 C 19.576 253.526,20.689 261.278,26.191 266.779 L 29.319 269.907 27.997 272.453 C 21.267 285.417,36.811 300.785,50.124 294.332 C 52.807 293.031,53.061 293.030,55.508 294.309 C 59.346 296.314,66.551 296.124,70.483 293.915 L 73.611 292.157 76.998 293.921 C 81.579 296.308,87.611 296.329,92.447 293.975 L 96.047 292.222 99.370 293.954 C 103.906 296.318,110.017 296.335,114.504 293.995 L 117.853 292.248 121.427 293.988 C 126.234 296.328,132.278 296.302,136.848 293.921 L 140.235 292.157 143.364 293.915 C 147.698 296.351,154.610 296.351,158.944 293.915 L 162.073 292.157 165.459 293.921 C 170.041 296.308,176.073 296.329,180.908 293.975 L 184.509 292.222 187.831 293.954 C 192.322 296.294,198.447 296.294,202.938 293.954 L 206.260 292.222 209.861 293.975 C 214.697 296.329,220.728 296.308,225.310 293.921 L 228.697 292.157 231.825 293.915 C 236.159 296.351,243.072 296.351,247.406 293.915 L 250.534 292.157 253.921 293.921 C 258.492 296.302,264.535 296.328,269.343 293.988 L 272.916 292.248 276.266 293.995 C 280.752 296.335,286.863 296.318,291.399 293.954 L 294.722 292.222 298.323 293.975 C 303.158 296.329,309.190 296.308,313.771 293.921 L 317.158 292.157 320.287 293.915 C 324.621 296.351,331.533 296.351,335.867 293.915 L 338.996 292.157 342.034 293.706 C 356.256 300.962,371.097 287.925,365.471 273.117 L 364.018 269.295 365.820 268.115 C 371.491 264.399,373.708 253.780,370.205 247.115 L 368.486 243.846 370.205 240.577 C 372.581 236.056,372.540 229.244,370.111 224.953 L 368.342 221.829 370.132 218.799 C 372.640 214.556,372.636 207.050,370.124 202.645 L 368.342 199.522 370.132 196.492 C 372.633 192.260,372.652 184.695,370.173 180.500 L 368.423 177.539 370.462 173.372 C 372.878 168.435,372.770 163.604,370.133 158.544 L 368.486 155.385 370.205 152.115 C 372.581 147.594,372.540 140.782,370.111 136.492 L 368.342 133.368 370.132 130.338 C 372.640 126.094,372.636 118.588,370.124 114.184 L 368.342 111.060 370.120 108.046 C 372.554 103.920,372.597 97.052,370.217 92.523 L 368.511 89.278 370.402 85.216 C 372.795 80.075,372.795 76.079,370.402 70.938 L 368.511 66.876 370.217 63.630 C 373.550 57.290,372.097 48.679,366.870 43.797 C 364.742 41.808,364.740 41.800,365.919 38.218 C 370.385 24.654,355.631 12.142,342.885 18.685 L 339.231 20.560 335.639 18.742 C 330.834 16.309,325.319 16.309,320.515 18.742 L 316.923 20.560 313.331 18.742 C 308.402 16.246,302.950 16.295,298.093 18.877 C 294.905 20.572,294.254 20.688,293.171 19.755 C 289.418 16.521,281.160 16.021,276.076 18.719 L 272.692 20.515 269.302 18.719 C 264.740 16.302,259.163 16.311,254.361 18.742 L 250.769 20.560 247.177 18.742 C 242.373 16.309,236.858 16.309,232.053 18.742 L 228.462 20.560 224.870 18.742 C 220.066 16.310,214.478 16.301,209.922 18.719 L 206.538 20.515 203.148 18.719 C 198.517 16.266,192.237 16.266,187.615 18.719 L 184.231 20.515 180.841 18.719 C 176.278 16.302,170.701 16.311,165.900 18.742 L 162.308 20.560 158.716 18.742 C 153.911 16.309,148.396 16.309,143.592 18.742 L 140.000 20.560 136.408 18.742 C 131.606 16.311,126.029 16.302,121.467 18.719 L 118.077 20.515 114.693 18.719 C 110.135 16.300,103.977 16.308,99.231 18.740 L 95.769 20.514 92.385 18.718 C 87.830 16.301,82.241 16.310,77.438 18.742 L 73.846 20.560 70.254 18.742 C 65.893 16.533,60.171 16.368,55.816 18.324 C 52.912 19.629,52.672 19.628,50.076 18.304 C 46.210 16.333,39.736 16.516,35.385 18.719 M49.941 21.611 L 52.574 23.216 55.970 21.521 C 60.345 19.335,67.001 19.625,70.554 22.154 C 73.542 24.282,73.924 24.269,77.381 21.923 C 81.314 19.254,87.515 19.258,92.194 21.932 C 96.303 24.281,96.214 24.281,99.689 21.923 C 103.682 19.213,110.164 19.213,114.158 21.923 C 117.628 24.278,118.069 24.277,121.923 21.903 C 126.247 19.240,132.524 19.249,136.465 21.923 C 139.931 24.275,140.301 24.285,143.343 22.115 C 146.834 19.625,155.474 19.625,158.965 22.115 C 162.007 24.285,162.377 24.275,165.842 21.923 C 169.784 19.249,176.061 19.240,180.385 21.903 C 184.239 24.277,184.680 24.278,188.150 21.923 C 192.143 19.213,198.626 19.213,202.619 21.923 C 206.090 24.278,206.530 24.277,210.385 21.903 C 214.709 19.240,220.986 19.249,224.927 21.923 C 228.392 24.275,228.762 24.285,231.804 22.115 C 233.766 20.716,235.263 20.385,239.615 20.385 C 243.968 20.385,245.465 20.716,247.426 22.115 C 250.468 24.285,250.838 24.275,254.304 21.923 C 258.245 19.249,264.522 19.240,268.846 21.903 C 272.701 24.277,273.141 24.278,276.612 21.923 C 280.605 19.213,287.087 19.213,291.081 21.923 C 294.556 24.281,294.467 24.281,298.575 21.932 C 303.254 19.258,309.455 19.254,313.388 21.923 C 316.854 24.275,317.224 24.285,320.266 22.115 C 322.227 20.716,323.725 20.385,328.077 20.385 C 332.429 20.385,333.927 20.716,335.888 22.115 C 338.930 24.285,339.300 24.275,342.765 21.923 C 353.905 14.364,367.303 26.144,362.574 39.340 L 361.295 42.910 364.223 45.481 C 369.630 50.229,370.624 56.070,367.182 62.874 L 365.133 66.923 367.279 71.164 C 369.842 76.230,369.746 81.730,367.031 85.403 C 364.922 88.255,364.959 89.044,367.399 93.411 C 369.889 97.865,369.737 104.050,367.050 107.685 C 364.956 110.518,364.958 111.856,367.062 114.811 C 369.738 118.568,369.879 124.460,367.399 128.897 C 364.959 133.264,364.922 134.052,367.031 136.905 C 369.746 140.577,369.842 146.077,367.279 151.144 L 365.133 155.385 367.279 159.626 C 369.842 164.692,369.746 170.192,367.031 173.864 C 364.922 176.717,364.959 177.506,367.399 181.872 C 369.879 186.309,369.738 192.201,367.062 195.958 C 364.955 198.918,364.955 200.313,367.062 203.272 C 369.738 207.030,369.879 212.922,367.399 217.359 C 364.959 221.725,364.922 222.514,367.031 225.366 C 369.746 229.039,369.842 234.539,367.279 239.605 L 365.133 243.846 367.182 247.896 C 370.685 254.820,369.614 260.654,363.946 265.505 C 360.302 268.624,360.223 268.990,362.308 273.077 C 369.399 286.977,354.174 298.176,340.297 289.267 C 338.846 288.335,338.359 288.461,335.759 290.445 C 331.547 293.657,324.747 293.669,320.129 290.472 L 316.923 288.252 313.864 290.373 C 308.565 294.044,302.147 293.602,296.099 289.148 C 295.135 288.438,294.275 288.665,291.855 290.266 C 286.371 293.896,281.022 293.900,275.685 290.278 C 273.374 288.710,272.503 288.474,271.569 289.163 C 265.570 293.594,259.210 294.025,253.695 290.376 C 251.651 289.023,250.166 288.503,249.586 288.937 C 244.985 292.374,244.136 292.692,239.583 292.692 C 235.663 292.692,234.340 292.326,231.734 290.520 L 228.600 288.348 225.468 290.421 C 220.021 294.025,213.634 293.574,207.662 289.163 C 206.728 288.474,205.856 288.710,203.546 290.278 C 198.226 293.888,192.544 293.888,187.223 290.278 C 184.913 288.710,184.041 288.474,183.108 289.163 C 177.135 293.574,170.748 294.025,165.301 290.421 L 162.169 288.348 159.035 290.520 C 156.429 292.326,155.106 292.692,151.186 292.692 C 146.633 292.692,145.785 292.374,141.183 288.937 C 140.603 288.503,139.119 289.023,137.074 290.376 C 131.560 294.025,125.199 293.594,119.200 289.163 C 118.266 288.474,117.395 288.710,115.084 290.278 C 109.764 293.888,104.082 293.888,98.762 290.278 C 96.451 288.710,95.580 288.474,94.646 289.163 C 88.639 293.600,82.196 294.039,76.906 290.373 L 73.846 288.252 70.643 290.472 C 66.655 293.236,60.331 293.557,55.984 291.216 C 53.258 289.748,53.220 289.749,49.363 291.408 C 36.640 296.882,24.696 284.743,31.093 272.841 L 33.080 269.144 29.645 266.018 C 23.430 260.361,22.265 253.090,26.577 246.867 L 28.671 243.846 26.551 240.787 C 22.879 235.488,23.321 229.070,27.775 223.022 C 28.485 222.058,28.258 221.198,26.657 218.779 C 23.027 213.294,23.023 207.945,26.645 202.608 C 28.213 200.298,28.449 199.426,27.760 198.492 C 23.329 192.493,22.898 186.133,26.547 180.618 C 28.239 178.061,28.486 177.175,27.775 176.209 C 23.321 170.160,22.879 163.743,26.551 158.444 L 28.671 155.385 26.551 152.325 C 22.879 147.027,23.321 140.609,27.775 134.560 C 28.486 133.595,28.239 132.708,26.547 130.151 C 22.898 124.637,23.329 118.276,27.760 112.277 C 28.449 111.343,28.213 110.472,26.645 108.161 C 23.023 102.824,23.027 97.476,26.657 91.991 C 28.258 89.571,28.485 88.711,27.775 87.747 C 23.321 81.699,22.879 75.281,26.551 69.983 L 28.671 66.923 26.577 63.902 C 22.463 57.966,23.468 50.210,28.977 45.373 C 31.864 42.838,31.854 42.943,29.904 36.412 C 26.659 25.541,40.101 15.612,49.941 21.611 " stroke="none" fill="#000000" fill-rule="evenodd"></path></g></svg>